<svg width="48" height="48" viewBox="0 0 32 32" fill="none" xmlns="http://www.w3.org/2000/svg">
<circle cx="16" cy="16" r="16" fill="white"/>
<path fill-rule="evenodd" clip-rule="evenodd" d="M0 16C0 7.16344 7.16344 0 16 0C24.8366 0 32 7.16344 32 16C32 24.8366 24.8366 32 16 32C7.16344 32 0 24.8366 0 16ZM16.0008 13.1558C17.5717 13.1558 18.8453 14.4292 18.8453 16.0002C18.8453 17.5711 17.5717 18.8447 16.0008 18.8447C14.4298 18.8447 13.1563 17.5711 13.1563 16.0002C13.1563 14.4292 14.4298 13.1558 16.0008 13.1558ZM12.4822 7.5183C13.3924 7.47687 13.6833 7.46674 16.0008 7.46674H15.9981C18.3164 7.46674 18.6062 7.47687 19.5164 7.5183C20.4248 7.5599 21.0453 7.70372 21.5893 7.91475C22.1511 8.13253 22.6258 8.42408 23.1004 8.89876C23.5751 9.37307 23.8667 9.84917 24.0853 10.4104C24.2951 10.953 24.4391 11.5731 24.4818 12.4816C24.5227 13.3918 24.5333 13.6826 24.5333 16.0002C24.5333 18.3177 24.5227 18.6078 24.4818 19.5181C24.4391 20.4262 24.2951 21.0464 24.0853 21.5892C23.8667 22.1503 23.5751 22.6264 23.1004 23.1007C22.6263 23.5754 22.1509 23.8676 21.5898 24.0856C21.0469 24.2966 20.4261 24.4404 19.5176 24.482C18.6074 24.5235 18.3174 24.5336 15.9997 24.5336C13.6824 24.5336 13.3917 24.5235 12.4815 24.482C11.5732 24.4404 10.9529 24.2966 10.41 24.0856C9.84909 23.8676 9.373 23.5754 8.89886 23.1007C8.42437 22.6264 8.13281 22.1503 7.91467 21.589C7.70383 21.0464 7.56 20.4263 7.51822 19.5179C7.47698 18.6077 7.46667 18.3177 7.46667 16.0002C7.46667 13.6826 7.47733 13.3916 7.51805 12.4814C7.55894 11.5733 7.70294 10.953 7.91449 10.4102C8.13316 9.84917 8.42472 9.37307 8.89939 8.89876C9.37371 8.42426 9.8498 8.1327 10.4111 7.91475C10.9536 7.70372 11.5737 7.5599 12.4822 7.5183Z" fill="url(#paint0_linear)"/>
<path fill-rule="evenodd" clip-rule="evenodd" d="M15.2352 9.00409C15.3839 9.00385 15.5438 9.00393 15.7163 9.004L16.0008 9.00409C18.2792 9.00409 18.5492 9.01226 19.449 9.05315C20.281 9.0912 20.7325 9.23022 21.0333 9.34702C21.4316 9.50169 21.7155 9.68658 22.014 9.98525C22.3126 10.2839 22.4975 10.5684 22.6526 10.9666C22.7694 11.267 22.9086 11.7186 22.9464 12.5506C22.9873 13.4502 22.9962 13.7204 22.9962 15.9978C22.9962 18.2751 22.9873 18.5453 22.9464 19.4449C22.9084 20.2769 22.7694 20.7285 22.6526 21.0289C22.4979 21.4272 22.3126 21.7107 22.014 22.0092C21.7153 22.3079 21.4317 22.4928 21.0333 22.6474C20.7329 22.7648 20.281 22.9034 19.449 22.9415C18.5494 22.9824 18.2792 22.9913 16.0008 22.9913C13.7222 22.9913 13.4521 22.9824 12.5525 22.9415C11.7205 22.9031 11.269 22.7641 10.968 22.6473C10.5698 22.4926 10.2853 22.3077 9.98665 22.009C9.68798 21.7104 9.50309 21.4266 9.34806 21.0282C9.23126 20.7278 9.09206 20.2762 9.05419 19.4442C9.0133 18.5446 9.00513 18.2744 9.00513 15.9956C9.00513 13.7168 9.0133 13.448 9.05419 12.5485C9.09224 11.7165 9.23126 11.2649 9.34806 10.9641C9.50273 10.5659 9.68798 10.2814 9.98665 9.98276C10.2853 9.68409 10.5698 9.4992 10.968 9.34418C11.2688 9.22684 11.7205 9.08818 12.5525 9.04995C13.3398 9.0144 13.6448 9.00373 15.2352 9.00195V9.00409ZM20.5558 10.421C19.9905 10.421 19.5318 10.8792 19.5318 11.4447C19.5318 12.01 19.9905 12.4687 20.5558 12.4687C21.1212 12.4687 21.5798 12.01 21.5798 11.4447C21.5798 10.8793 21.1212 10.4207 20.5558 10.4207V10.421ZM11.6185 15.9999C11.6185 13.5798 13.5805 11.6177 16.0006 11.6176C18.4207 11.6176 20.3823 13.5798 20.3823 15.9999C20.3823 18.42 18.4209 20.3813 16.0008 20.3813C13.5806 20.3813 11.6185 18.42 11.6185 15.9999Z" fill="url(#paint1_linear)"/>
<defs>
<linearGradient id="paint0_linear" x1="6.43681" y1="29.5161" x2="28.3333" y2="5" gradientUnits="userSpaceOnUse">
<stop stop-color="#F3B850"/>
<stop offset="0.323602" stop-color="#DC2948"/>
<stop offset="0.617708" stop-color="#BA3975"/>
<stop offset="1" stop-color="#5755A4"/>
</linearGradient>
<linearGradient id="paint1_linear" x1="4.99995" y1="26.9997" x2="27.664" y2="5.99679" gradientUnits="userSpaceOnUse">
<stop stop-color="#F3B850"/>
<stop offset="0.410089" stop-color="#DC2948"/>
<stop offset="0.68625" stop-color="#BA3975"/>
<stop offset="1" stop-color="#5755A4"/>
</linearGradient>
</defs>
</svg>
